%TF.GenerationSoftware,KiCad,Pcbnew,8.0.7*%
%TF.CreationDate,2024-12-28T18:31:31-05:00*%
%TF.ProjectId,nob,6e6f622e-6b69-4636-9164-5f7063625858,rev?*%
%TF.SameCoordinates,Original*%
%TF.FileFunction,Drillmap*%
%TF.FilePolarity,Positive*%
%FSLAX45Y45*%
G04 Gerber Fmt 4.5, Leading zero omitted, Abs format (unit mm)*
G04 Created by KiCad (PCBNEW 8.0.7) date 2024-12-28 18:31:31*
%MOMM*%
%LPD*%
G01*
G04 APERTURE LIST*
%ADD10C,0.050000*%
%ADD11C,0.200000*%
G04 APERTURE END LIST*
D10*
X14300000Y-3750000D02*
G75*
G02*
X11700000Y-3750000I-1300000J-3250000D01*
G01*
X12000000Y-3440000D02*
X14000000Y-3440000D01*
X11700000Y-3750000D02*
X12000000Y-3440000D01*
X14000000Y-3440000D02*
X14300000Y-3750000D01*
D11*
X9757920Y-10814341D02*
X9757920Y-10614341D01*
X9757920Y-10614341D02*
X9805539Y-10614341D01*
X9805539Y-10614341D02*
X9834110Y-10623865D01*
X9834110Y-10623865D02*
X9853158Y-10642912D01*
X9853158Y-10642912D02*
X9862682Y-10661960D01*
X9862682Y-10661960D02*
X9872205Y-10700055D01*
X9872205Y-10700055D02*
X9872205Y-10728627D01*
X9872205Y-10728627D02*
X9862682Y-10766722D01*
X9862682Y-10766722D02*
X9853158Y-10785769D01*
X9853158Y-10785769D02*
X9834110Y-10804817D01*
X9834110Y-10804817D02*
X9805539Y-10814341D01*
X9805539Y-10814341D02*
X9757920Y-10814341D01*
X9957920Y-10814341D02*
X9957920Y-10681008D01*
X9957920Y-10719103D02*
X9967444Y-10700055D01*
X9967444Y-10700055D02*
X9976967Y-10690531D01*
X9976967Y-10690531D02*
X9996015Y-10681008D01*
X9996015Y-10681008D02*
X10015063Y-10681008D01*
X10081729Y-10814341D02*
X10081729Y-10681008D01*
X10081729Y-10614341D02*
X10072205Y-10623865D01*
X10072205Y-10623865D02*
X10081729Y-10633389D01*
X10081729Y-10633389D02*
X10091253Y-10623865D01*
X10091253Y-10623865D02*
X10081729Y-10614341D01*
X10081729Y-10614341D02*
X10081729Y-10633389D01*
X10205539Y-10814341D02*
X10186491Y-10804817D01*
X10186491Y-10804817D02*
X10176967Y-10785769D01*
X10176967Y-10785769D02*
X10176967Y-10614341D01*
X10310301Y-10814341D02*
X10291253Y-10804817D01*
X10291253Y-10804817D02*
X10281729Y-10785769D01*
X10281729Y-10785769D02*
X10281729Y-10614341D01*
X10538872Y-10814341D02*
X10538872Y-10614341D01*
X10538872Y-10614341D02*
X10605539Y-10757198D01*
X10605539Y-10757198D02*
X10672205Y-10614341D01*
X10672205Y-10614341D02*
X10672205Y-10814341D01*
X10853158Y-10814341D02*
X10853158Y-10709579D01*
X10853158Y-10709579D02*
X10843634Y-10690531D01*
X10843634Y-10690531D02*
X10824586Y-10681008D01*
X10824586Y-10681008D02*
X10786491Y-10681008D01*
X10786491Y-10681008D02*
X10767444Y-10690531D01*
X10853158Y-10804817D02*
X10834110Y-10814341D01*
X10834110Y-10814341D02*
X10786491Y-10814341D01*
X10786491Y-10814341D02*
X10767444Y-10804817D01*
X10767444Y-10804817D02*
X10757920Y-10785769D01*
X10757920Y-10785769D02*
X10757920Y-10766722D01*
X10757920Y-10766722D02*
X10767444Y-10747674D01*
X10767444Y-10747674D02*
X10786491Y-10738150D01*
X10786491Y-10738150D02*
X10834110Y-10738150D01*
X10834110Y-10738150D02*
X10853158Y-10728627D01*
X10948396Y-10681008D02*
X10948396Y-10881008D01*
X10948396Y-10690531D02*
X10967444Y-10681008D01*
X10967444Y-10681008D02*
X11005539Y-10681008D01*
X11005539Y-10681008D02*
X11024586Y-10690531D01*
X11024586Y-10690531D02*
X11034110Y-10700055D01*
X11034110Y-10700055D02*
X11043634Y-10719103D01*
X11043634Y-10719103D02*
X11043634Y-10776246D01*
X11043634Y-10776246D02*
X11034110Y-10795293D01*
X11034110Y-10795293D02*
X11024586Y-10804817D01*
X11024586Y-10804817D02*
X11005539Y-10814341D01*
X11005539Y-10814341D02*
X10967444Y-10814341D01*
X10967444Y-10814341D02*
X10948396Y-10804817D01*
X11129348Y-10795293D02*
X11138872Y-10804817D01*
X11138872Y-10804817D02*
X11129348Y-10814341D01*
X11129348Y-10814341D02*
X11119825Y-10804817D01*
X11119825Y-10804817D02*
X11129348Y-10795293D01*
X11129348Y-10795293D02*
X11129348Y-10814341D01*
X11129348Y-10690531D02*
X11138872Y-10700055D01*
X11138872Y-10700055D02*
X11129348Y-10709579D01*
X11129348Y-10709579D02*
X11119825Y-10700055D01*
X11119825Y-10700055D02*
X11129348Y-10690531D01*
X11129348Y-10690531D02*
X11129348Y-10709579D01*
M02*
