%TF.GenerationSoftware,KiCad,Pcbnew,8.0.7*%
%TF.CreationDate,2024-12-28T18:31:31-05:00*%
%TF.ProjectId,nob,6e6f622e-6b69-4636-9164-5f7063625858,rev?*%
%TF.SameCoordinates,Original*%
%TF.FileFunction,Drillmap*%
%TF.FilePolarity,Positive*%
%FSLAX45Y45*%
G04 Gerber Fmt 4.5, Leading zero omitted, Abs format (unit mm)*
G04 Created by KiCad (PCBNEW 8.0.7) date 2024-12-28 18:31:31*
%MOMM*%
%LPD*%
G01*
G04 APERTURE LIST*
%ADD10C,0.050000*%
%ADD11C,0.200000*%
%ADD12C,0.100000*%
%ADD13C,0.320000*%
G04 APERTURE END LIST*
D10*
X14300000Y-3750000D02*
G75*
G02*
X11700000Y-3750000I-1300000J-3250000D01*
G01*
X12000000Y-3440000D02*
X14000000Y-3440000D01*
X11700000Y-3750000D02*
X12000000Y-3440000D01*
X14000000Y-3440000D02*
X14300000Y-3750000D01*
D11*
D12*
X11885000Y-4185000D02*
X11915000Y-4215000D01*
X11915000Y-4185000D02*
X11885000Y-4215000D01*
X13435000Y-3887800D02*
X13465000Y-3917800D01*
X13465000Y-3887800D02*
X13435000Y-3917800D01*
X13535000Y-3887800D02*
X13565000Y-3917800D01*
X13565000Y-3887800D02*
X13535000Y-3917800D01*
X15317682Y-5952367D02*
X15347682Y-5982367D01*
X15347682Y-5952367D02*
X15317682Y-5982367D01*
X12230000Y-5900000D02*
G75*
G02*
X12170000Y-5900000I-30000J0D01*
G01*
X12170000Y-5900000D02*
G75*
G02*
X12230000Y-5900000I30000J0D01*
G01*
X12230000Y-6175000D02*
G75*
G02*
X12170000Y-6175000I-30000J0D01*
G01*
X12170000Y-6175000D02*
G75*
G02*
X12230000Y-6175000I30000J0D01*
G01*
X12530000Y-5900000D02*
G75*
G02*
X12470000Y-5900000I-30000J0D01*
G01*
X12470000Y-5900000D02*
G75*
G02*
X12530000Y-5900000I30000J0D01*
G01*
X12530000Y-6175000D02*
G75*
G02*
X12470000Y-6175000I-30000J0D01*
G01*
X12470000Y-6175000D02*
G75*
G02*
X12530000Y-6175000I30000J0D01*
G01*
X13430000Y-5725000D02*
G75*
G02*
X13370000Y-5725000I-30000J0D01*
G01*
X13370000Y-5725000D02*
G75*
G02*
X13430000Y-5725000I30000J0D01*
G01*
X13430000Y-6000000D02*
G75*
G02*
X13370000Y-6000000I-30000J0D01*
G01*
X13370000Y-6000000D02*
G75*
G02*
X13430000Y-6000000I30000J0D01*
G01*
X13730000Y-5725000D02*
G75*
G02*
X13670000Y-5725000I-30000J0D01*
G01*
X13670000Y-5725000D02*
G75*
G02*
X13730000Y-5725000I30000J0D01*
G01*
X13730000Y-6000000D02*
G75*
G02*
X13670000Y-6000000I-30000J0D01*
G01*
X13670000Y-6000000D02*
G75*
G02*
X13730000Y-6000000I30000J0D01*
G01*
X14205000Y-4675000D02*
G75*
G02*
X14145000Y-4675000I-30000J0D01*
G01*
X14145000Y-4675000D02*
G75*
G02*
X14205000Y-4675000I30000J0D01*
G01*
X14205000Y-5015000D02*
G75*
G02*
X14145000Y-5015000I-30000J0D01*
G01*
X14145000Y-5015000D02*
G75*
G02*
X14205000Y-5015000I30000J0D01*
G01*
X14480000Y-5015000D02*
G75*
G02*
X14420000Y-5015000I-30000J0D01*
G01*
X14420000Y-5015000D02*
G75*
G02*
X14480000Y-5015000I30000J0D01*
G01*
X14530000Y-6400000D02*
G75*
G02*
X14470000Y-6400000I-30000J0D01*
G01*
X14470000Y-6400000D02*
G75*
G02*
X14530000Y-6400000I30000J0D01*
G01*
X14830000Y-6400000D02*
G75*
G02*
X14770000Y-6400000I-30000J0D01*
G01*
X14770000Y-6400000D02*
G75*
G02*
X14830000Y-6400000I30000J0D01*
G01*
D13*
X11585786Y-5425786D02*
X11585786Y-5745786D01*
X11425786Y-5585786D02*
X11745786Y-5585786D01*
X11585786Y-8254214D02*
X11585786Y-8574214D01*
X11425786Y-8414214D02*
X11745786Y-8414214D01*
X14414214Y-5425786D02*
X14414214Y-5745786D01*
X14254214Y-5585786D02*
X14574214Y-5585786D01*
X14414214Y-8254214D02*
X14414214Y-8574214D01*
X14254214Y-8414214D02*
X14574214Y-8414214D01*
D11*
X9757920Y-10814341D02*
X9757920Y-10614341D01*
X9757920Y-10614341D02*
X9805539Y-10614341D01*
X9805539Y-10614341D02*
X9834110Y-10623865D01*
X9834110Y-10623865D02*
X9853158Y-10642912D01*
X9853158Y-10642912D02*
X9862682Y-10661960D01*
X9862682Y-10661960D02*
X9872205Y-10700055D01*
X9872205Y-10700055D02*
X9872205Y-10728627D01*
X9872205Y-10728627D02*
X9862682Y-10766722D01*
X9862682Y-10766722D02*
X9853158Y-10785769D01*
X9853158Y-10785769D02*
X9834110Y-10804817D01*
X9834110Y-10804817D02*
X9805539Y-10814341D01*
X9805539Y-10814341D02*
X9757920Y-10814341D01*
X9957920Y-10814341D02*
X9957920Y-10681008D01*
X9957920Y-10719103D02*
X9967444Y-10700055D01*
X9967444Y-10700055D02*
X9976967Y-10690531D01*
X9976967Y-10690531D02*
X9996015Y-10681008D01*
X9996015Y-10681008D02*
X10015063Y-10681008D01*
X10081729Y-10814341D02*
X10081729Y-10681008D01*
X10081729Y-10614341D02*
X10072205Y-10623865D01*
X10072205Y-10623865D02*
X10081729Y-10633389D01*
X10081729Y-10633389D02*
X10091253Y-10623865D01*
X10091253Y-10623865D02*
X10081729Y-10614341D01*
X10081729Y-10614341D02*
X10081729Y-10633389D01*
X10205539Y-10814341D02*
X10186491Y-10804817D01*
X10186491Y-10804817D02*
X10176967Y-10785769D01*
X10176967Y-10785769D02*
X10176967Y-10614341D01*
X10310301Y-10814341D02*
X10291253Y-10804817D01*
X10291253Y-10804817D02*
X10281729Y-10785769D01*
X10281729Y-10785769D02*
X10281729Y-10614341D01*
X10538872Y-10814341D02*
X10538872Y-10614341D01*
X10538872Y-10614341D02*
X10605539Y-10757198D01*
X10605539Y-10757198D02*
X10672205Y-10614341D01*
X10672205Y-10614341D02*
X10672205Y-10814341D01*
X10853158Y-10814341D02*
X10853158Y-10709579D01*
X10853158Y-10709579D02*
X10843634Y-10690531D01*
X10843634Y-10690531D02*
X10824586Y-10681008D01*
X10824586Y-10681008D02*
X10786491Y-10681008D01*
X10786491Y-10681008D02*
X10767444Y-10690531D01*
X10853158Y-10804817D02*
X10834110Y-10814341D01*
X10834110Y-10814341D02*
X10786491Y-10814341D01*
X10786491Y-10814341D02*
X10767444Y-10804817D01*
X10767444Y-10804817D02*
X10757920Y-10785769D01*
X10757920Y-10785769D02*
X10757920Y-10766722D01*
X10757920Y-10766722D02*
X10767444Y-10747674D01*
X10767444Y-10747674D02*
X10786491Y-10738150D01*
X10786491Y-10738150D02*
X10834110Y-10738150D01*
X10834110Y-10738150D02*
X10853158Y-10728627D01*
X10948396Y-10681008D02*
X10948396Y-10881008D01*
X10948396Y-10690531D02*
X10967444Y-10681008D01*
X10967444Y-10681008D02*
X11005539Y-10681008D01*
X11005539Y-10681008D02*
X11024586Y-10690531D01*
X11024586Y-10690531D02*
X11034110Y-10700055D01*
X11034110Y-10700055D02*
X11043634Y-10719103D01*
X11043634Y-10719103D02*
X11043634Y-10776246D01*
X11043634Y-10776246D02*
X11034110Y-10795293D01*
X11034110Y-10795293D02*
X11024586Y-10804817D01*
X11024586Y-10804817D02*
X11005539Y-10814341D01*
X11005539Y-10814341D02*
X10967444Y-10814341D01*
X10967444Y-10814341D02*
X10948396Y-10804817D01*
X11129348Y-10795293D02*
X11138872Y-10804817D01*
X11138872Y-10804817D02*
X11129348Y-10814341D01*
X11129348Y-10814341D02*
X11119825Y-10804817D01*
X11119825Y-10804817D02*
X11129348Y-10795293D01*
X11129348Y-10795293D02*
X11129348Y-10814341D01*
X11129348Y-10690531D02*
X11138872Y-10700055D01*
X11138872Y-10700055D02*
X11129348Y-10709579D01*
X11129348Y-10709579D02*
X11119825Y-10700055D01*
X11119825Y-10700055D02*
X11129348Y-10690531D01*
X11129348Y-10690531D02*
X11129348Y-10709579D01*
D12*
X9467143Y-11127857D02*
X9497143Y-11157857D01*
X9497143Y-11127857D02*
X9467143Y-11157857D01*
D11*
X9796015Y-11034341D02*
X9815063Y-11034341D01*
X9815063Y-11034341D02*
X9834110Y-11043865D01*
X9834110Y-11043865D02*
X9843634Y-11053389D01*
X9843634Y-11053389D02*
X9853158Y-11072436D01*
X9853158Y-11072436D02*
X9862682Y-11110531D01*
X9862682Y-11110531D02*
X9862682Y-11158150D01*
X9862682Y-11158150D02*
X9853158Y-11196246D01*
X9853158Y-11196246D02*
X9843634Y-11215293D01*
X9843634Y-11215293D02*
X9834110Y-11224817D01*
X9834110Y-11224817D02*
X9815063Y-11234341D01*
X9815063Y-11234341D02*
X9796015Y-11234341D01*
X9796015Y-11234341D02*
X9776967Y-11224817D01*
X9776967Y-11224817D02*
X9767444Y-11215293D01*
X9767444Y-11215293D02*
X9757920Y-11196246D01*
X9757920Y-11196246D02*
X9748396Y-11158150D01*
X9748396Y-11158150D02*
X9748396Y-11110531D01*
X9748396Y-11110531D02*
X9757920Y-11072436D01*
X9757920Y-11072436D02*
X9767444Y-11053389D01*
X9767444Y-11053389D02*
X9776967Y-11043865D01*
X9776967Y-11043865D02*
X9796015Y-11034341D01*
X9948396Y-11215293D02*
X9957920Y-11224817D01*
X9957920Y-11224817D02*
X9948396Y-11234341D01*
X9948396Y-11234341D02*
X9938872Y-11224817D01*
X9938872Y-11224817D02*
X9948396Y-11215293D01*
X9948396Y-11215293D02*
X9948396Y-11234341D01*
X10024586Y-11034341D02*
X10148396Y-11034341D01*
X10148396Y-11034341D02*
X10081729Y-11110531D01*
X10081729Y-11110531D02*
X10110301Y-11110531D01*
X10110301Y-11110531D02*
X10129348Y-11120055D01*
X10129348Y-11120055D02*
X10138872Y-11129579D01*
X10138872Y-11129579D02*
X10148396Y-11148627D01*
X10148396Y-11148627D02*
X10148396Y-11196246D01*
X10148396Y-11196246D02*
X10138872Y-11215293D01*
X10138872Y-11215293D02*
X10129348Y-11224817D01*
X10129348Y-11224817D02*
X10110301Y-11234341D01*
X10110301Y-11234341D02*
X10053158Y-11234341D01*
X10053158Y-11234341D02*
X10034110Y-11224817D01*
X10034110Y-11224817D02*
X10024586Y-11215293D01*
X10272205Y-11034341D02*
X10291253Y-11034341D01*
X10291253Y-11034341D02*
X10310301Y-11043865D01*
X10310301Y-11043865D02*
X10319825Y-11053389D01*
X10319825Y-11053389D02*
X10329348Y-11072436D01*
X10329348Y-11072436D02*
X10338872Y-11110531D01*
X10338872Y-11110531D02*
X10338872Y-11158150D01*
X10338872Y-11158150D02*
X10329348Y-11196246D01*
X10329348Y-11196246D02*
X10319825Y-11215293D01*
X10319825Y-11215293D02*
X10310301Y-11224817D01*
X10310301Y-11224817D02*
X10291253Y-11234341D01*
X10291253Y-11234341D02*
X10272205Y-11234341D01*
X10272205Y-11234341D02*
X10253158Y-11224817D01*
X10253158Y-11224817D02*
X10243634Y-11215293D01*
X10243634Y-11215293D02*
X10234110Y-11196246D01*
X10234110Y-11196246D02*
X10224586Y-11158150D01*
X10224586Y-11158150D02*
X10224586Y-11110531D01*
X10224586Y-11110531D02*
X10234110Y-11072436D01*
X10234110Y-11072436D02*
X10243634Y-11053389D01*
X10243634Y-11053389D02*
X10253158Y-11043865D01*
X10253158Y-11043865D02*
X10272205Y-11034341D01*
X10462682Y-11034341D02*
X10481729Y-11034341D01*
X10481729Y-11034341D02*
X10500777Y-11043865D01*
X10500777Y-11043865D02*
X10510301Y-11053389D01*
X10510301Y-11053389D02*
X10519825Y-11072436D01*
X10519825Y-11072436D02*
X10529348Y-11110531D01*
X10529348Y-11110531D02*
X10529348Y-11158150D01*
X10529348Y-11158150D02*
X10519825Y-11196246D01*
X10519825Y-11196246D02*
X10510301Y-11215293D01*
X10510301Y-11215293D02*
X10500777Y-11224817D01*
X10500777Y-11224817D02*
X10481729Y-11234341D01*
X10481729Y-11234341D02*
X10462682Y-11234341D01*
X10462682Y-11234341D02*
X10443634Y-11224817D01*
X10443634Y-11224817D02*
X10434110Y-11215293D01*
X10434110Y-11215293D02*
X10424586Y-11196246D01*
X10424586Y-11196246D02*
X10415063Y-11158150D01*
X10415063Y-11158150D02*
X10415063Y-11110531D01*
X10415063Y-11110531D02*
X10424586Y-11072436D01*
X10424586Y-11072436D02*
X10434110Y-11053389D01*
X10434110Y-11053389D02*
X10443634Y-11043865D01*
X10443634Y-11043865D02*
X10462682Y-11034341D01*
X10615063Y-11234341D02*
X10615063Y-11101008D01*
X10615063Y-11120055D02*
X10624586Y-11110531D01*
X10624586Y-11110531D02*
X10643634Y-11101008D01*
X10643634Y-11101008D02*
X10672206Y-11101008D01*
X10672206Y-11101008D02*
X10691253Y-11110531D01*
X10691253Y-11110531D02*
X10700777Y-11129579D01*
X10700777Y-11129579D02*
X10700777Y-11234341D01*
X10700777Y-11129579D02*
X10710301Y-11110531D01*
X10710301Y-11110531D02*
X10729348Y-11101008D01*
X10729348Y-11101008D02*
X10757920Y-11101008D01*
X10757920Y-11101008D02*
X10776967Y-11110531D01*
X10776967Y-11110531D02*
X10786491Y-11129579D01*
X10786491Y-11129579D02*
X10786491Y-11234341D01*
X10881729Y-11234341D02*
X10881729Y-11101008D01*
X10881729Y-11120055D02*
X10891253Y-11110531D01*
X10891253Y-11110531D02*
X10910301Y-11101008D01*
X10910301Y-11101008D02*
X10938872Y-11101008D01*
X10938872Y-11101008D02*
X10957920Y-11110531D01*
X10957920Y-11110531D02*
X10967444Y-11129579D01*
X10967444Y-11129579D02*
X10967444Y-11234341D01*
X10967444Y-11129579D02*
X10976967Y-11110531D01*
X10976967Y-11110531D02*
X10996015Y-11101008D01*
X10996015Y-11101008D02*
X11024586Y-11101008D01*
X11024586Y-11101008D02*
X11043634Y-11110531D01*
X11043634Y-11110531D02*
X11053158Y-11129579D01*
X11053158Y-11129579D02*
X11053158Y-11234341D01*
X11443634Y-11024817D02*
X11272206Y-11281960D01*
X11700777Y-11034341D02*
X11719825Y-11034341D01*
X11719825Y-11034341D02*
X11738872Y-11043865D01*
X11738872Y-11043865D02*
X11748396Y-11053389D01*
X11748396Y-11053389D02*
X11757920Y-11072436D01*
X11757920Y-11072436D02*
X11767444Y-11110531D01*
X11767444Y-11110531D02*
X11767444Y-11158150D01*
X11767444Y-11158150D02*
X11757920Y-11196246D01*
X11757920Y-11196246D02*
X11748396Y-11215293D01*
X11748396Y-11215293D02*
X11738872Y-11224817D01*
X11738872Y-11224817D02*
X11719825Y-11234341D01*
X11719825Y-11234341D02*
X11700777Y-11234341D01*
X11700777Y-11234341D02*
X11681729Y-11224817D01*
X11681729Y-11224817D02*
X11672206Y-11215293D01*
X11672206Y-11215293D02*
X11662682Y-11196246D01*
X11662682Y-11196246D02*
X11653158Y-11158150D01*
X11653158Y-11158150D02*
X11653158Y-11110531D01*
X11653158Y-11110531D02*
X11662682Y-11072436D01*
X11662682Y-11072436D02*
X11672206Y-11053389D01*
X11672206Y-11053389D02*
X11681729Y-11043865D01*
X11681729Y-11043865D02*
X11700777Y-11034341D01*
X11853158Y-11215293D02*
X11862682Y-11224817D01*
X11862682Y-11224817D02*
X11853158Y-11234341D01*
X11853158Y-11234341D02*
X11843634Y-11224817D01*
X11843634Y-11224817D02*
X11853158Y-11215293D01*
X11853158Y-11215293D02*
X11853158Y-11234341D01*
X11986491Y-11034341D02*
X12005539Y-11034341D01*
X12005539Y-11034341D02*
X12024587Y-11043865D01*
X12024587Y-11043865D02*
X12034110Y-11053389D01*
X12034110Y-11053389D02*
X12043634Y-11072436D01*
X12043634Y-11072436D02*
X12053158Y-11110531D01*
X12053158Y-11110531D02*
X12053158Y-11158150D01*
X12053158Y-11158150D02*
X12043634Y-11196246D01*
X12043634Y-11196246D02*
X12034110Y-11215293D01*
X12034110Y-11215293D02*
X12024587Y-11224817D01*
X12024587Y-11224817D02*
X12005539Y-11234341D01*
X12005539Y-11234341D02*
X11986491Y-11234341D01*
X11986491Y-11234341D02*
X11967444Y-11224817D01*
X11967444Y-11224817D02*
X11957920Y-11215293D01*
X11957920Y-11215293D02*
X11948396Y-11196246D01*
X11948396Y-11196246D02*
X11938872Y-11158150D01*
X11938872Y-11158150D02*
X11938872Y-11110531D01*
X11938872Y-11110531D02*
X11948396Y-11072436D01*
X11948396Y-11072436D02*
X11957920Y-11053389D01*
X11957920Y-11053389D02*
X11967444Y-11043865D01*
X11967444Y-11043865D02*
X11986491Y-11034341D01*
X12243634Y-11234341D02*
X12129348Y-11234341D01*
X12186491Y-11234341D02*
X12186491Y-11034341D01*
X12186491Y-11034341D02*
X12167444Y-11062912D01*
X12167444Y-11062912D02*
X12148396Y-11081960D01*
X12148396Y-11081960D02*
X12129348Y-11091484D01*
X12434110Y-11234341D02*
X12319825Y-11234341D01*
X12376967Y-11234341D02*
X12376967Y-11034341D01*
X12376967Y-11034341D02*
X12357920Y-11062912D01*
X12357920Y-11062912D02*
X12338872Y-11081960D01*
X12338872Y-11081960D02*
X12319825Y-11091484D01*
X12548396Y-11120055D02*
X12529348Y-11110531D01*
X12529348Y-11110531D02*
X12519825Y-11101008D01*
X12519825Y-11101008D02*
X12510301Y-11081960D01*
X12510301Y-11081960D02*
X12510301Y-11072436D01*
X12510301Y-11072436D02*
X12519825Y-11053389D01*
X12519825Y-11053389D02*
X12529348Y-11043865D01*
X12529348Y-11043865D02*
X12548396Y-11034341D01*
X12548396Y-11034341D02*
X12586491Y-11034341D01*
X12586491Y-11034341D02*
X12605539Y-11043865D01*
X12605539Y-11043865D02*
X12615063Y-11053389D01*
X12615063Y-11053389D02*
X12624587Y-11072436D01*
X12624587Y-11072436D02*
X12624587Y-11081960D01*
X12624587Y-11081960D02*
X12615063Y-11101008D01*
X12615063Y-11101008D02*
X12605539Y-11110531D01*
X12605539Y-11110531D02*
X12586491Y-11120055D01*
X12586491Y-11120055D02*
X12548396Y-11120055D01*
X12548396Y-11120055D02*
X12529348Y-11129579D01*
X12529348Y-11129579D02*
X12519825Y-11139103D01*
X12519825Y-11139103D02*
X12510301Y-11158150D01*
X12510301Y-11158150D02*
X12510301Y-11196246D01*
X12510301Y-11196246D02*
X12519825Y-11215293D01*
X12519825Y-11215293D02*
X12529348Y-11224817D01*
X12529348Y-11224817D02*
X12548396Y-11234341D01*
X12548396Y-11234341D02*
X12586491Y-11234341D01*
X12586491Y-11234341D02*
X12605539Y-11224817D01*
X12605539Y-11224817D02*
X12615063Y-11215293D01*
X12615063Y-11215293D02*
X12624587Y-11196246D01*
X12624587Y-11196246D02*
X12624587Y-11158150D01*
X12624587Y-11158150D02*
X12615063Y-11139103D01*
X12615063Y-11139103D02*
X12605539Y-11129579D01*
X12605539Y-11129579D02*
X12586491Y-11120055D01*
X12700777Y-11034341D02*
X12700777Y-11072436D01*
X12776968Y-11034341D02*
X12776968Y-11072436D01*
X13072206Y-11310531D02*
X13062682Y-11301007D01*
X13062682Y-11301007D02*
X13043634Y-11272436D01*
X13043634Y-11272436D02*
X13034110Y-11253388D01*
X13034110Y-11253388D02*
X13024587Y-11224817D01*
X13024587Y-11224817D02*
X13015063Y-11177198D01*
X13015063Y-11177198D02*
X13015063Y-11139103D01*
X13015063Y-11139103D02*
X13024587Y-11091484D01*
X13024587Y-11091484D02*
X13034110Y-11062912D01*
X13034110Y-11062912D02*
X13043634Y-11043865D01*
X13043634Y-11043865D02*
X13062682Y-11015293D01*
X13062682Y-11015293D02*
X13072206Y-11005769D01*
X13234110Y-11101008D02*
X13234110Y-11234341D01*
X13186491Y-11024817D02*
X13138872Y-11167674D01*
X13138872Y-11167674D02*
X13262682Y-11167674D01*
X13491253Y-11234341D02*
X13491253Y-11034341D01*
X13576968Y-11234341D02*
X13576968Y-11129579D01*
X13576968Y-11129579D02*
X13567444Y-11110531D01*
X13567444Y-11110531D02*
X13548396Y-11101008D01*
X13548396Y-11101008D02*
X13519825Y-11101008D01*
X13519825Y-11101008D02*
X13500777Y-11110531D01*
X13500777Y-11110531D02*
X13491253Y-11120055D01*
X13700777Y-11234341D02*
X13681730Y-11224817D01*
X13681730Y-11224817D02*
X13672206Y-11215293D01*
X13672206Y-11215293D02*
X13662682Y-11196246D01*
X13662682Y-11196246D02*
X13662682Y-11139103D01*
X13662682Y-11139103D02*
X13672206Y-11120055D01*
X13672206Y-11120055D02*
X13681730Y-11110531D01*
X13681730Y-11110531D02*
X13700777Y-11101008D01*
X13700777Y-11101008D02*
X13729349Y-11101008D01*
X13729349Y-11101008D02*
X13748396Y-11110531D01*
X13748396Y-11110531D02*
X13757920Y-11120055D01*
X13757920Y-11120055D02*
X13767444Y-11139103D01*
X13767444Y-11139103D02*
X13767444Y-11196246D01*
X13767444Y-11196246D02*
X13757920Y-11215293D01*
X13757920Y-11215293D02*
X13748396Y-11224817D01*
X13748396Y-11224817D02*
X13729349Y-11234341D01*
X13729349Y-11234341D02*
X13700777Y-11234341D01*
X13881730Y-11234341D02*
X13862682Y-11224817D01*
X13862682Y-11224817D02*
X13853158Y-11205769D01*
X13853158Y-11205769D02*
X13853158Y-11034341D01*
X14034111Y-11224817D02*
X14015063Y-11234341D01*
X14015063Y-11234341D02*
X13976968Y-11234341D01*
X13976968Y-11234341D02*
X13957920Y-11224817D01*
X13957920Y-11224817D02*
X13948396Y-11205769D01*
X13948396Y-11205769D02*
X13948396Y-11129579D01*
X13948396Y-11129579D02*
X13957920Y-11110531D01*
X13957920Y-11110531D02*
X13976968Y-11101008D01*
X13976968Y-11101008D02*
X14015063Y-11101008D01*
X14015063Y-11101008D02*
X14034111Y-11110531D01*
X14034111Y-11110531D02*
X14043634Y-11129579D01*
X14043634Y-11129579D02*
X14043634Y-11148627D01*
X14043634Y-11148627D02*
X13948396Y-11167674D01*
X14119825Y-11224817D02*
X14138872Y-11234341D01*
X14138872Y-11234341D02*
X14176968Y-11234341D01*
X14176968Y-11234341D02*
X14196015Y-11224817D01*
X14196015Y-11224817D02*
X14205539Y-11205769D01*
X14205539Y-11205769D02*
X14205539Y-11196246D01*
X14205539Y-11196246D02*
X14196015Y-11177198D01*
X14196015Y-11177198D02*
X14176968Y-11167674D01*
X14176968Y-11167674D02*
X14148396Y-11167674D01*
X14148396Y-11167674D02*
X14129349Y-11158150D01*
X14129349Y-11158150D02*
X14119825Y-11139103D01*
X14119825Y-11139103D02*
X14119825Y-11129579D01*
X14119825Y-11129579D02*
X14129349Y-11110531D01*
X14129349Y-11110531D02*
X14148396Y-11101008D01*
X14148396Y-11101008D02*
X14176968Y-11101008D01*
X14176968Y-11101008D02*
X14196015Y-11110531D01*
X14272206Y-11310531D02*
X14281730Y-11301007D01*
X14281730Y-11301007D02*
X14300777Y-11272436D01*
X14300777Y-11272436D02*
X14310301Y-11253388D01*
X14310301Y-11253388D02*
X14319825Y-11224817D01*
X14319825Y-11224817D02*
X14329349Y-11177198D01*
X14329349Y-11177198D02*
X14329349Y-11139103D01*
X14329349Y-11139103D02*
X14319825Y-11091484D01*
X14319825Y-11091484D02*
X14310301Y-11062912D01*
X14310301Y-11062912D02*
X14300777Y-11043865D01*
X14300777Y-11043865D02*
X14281730Y-11015293D01*
X14281730Y-11015293D02*
X14272206Y-11005769D01*
D12*
X9497143Y-11406857D02*
G75*
G02*
X9437143Y-11406857I-30000J0D01*
G01*
X9437143Y-11406857D02*
G75*
G02*
X9497143Y-11406857I30000J0D01*
G01*
D11*
X9796015Y-11298341D02*
X9815063Y-11298341D01*
X9815063Y-11298341D02*
X9834110Y-11307865D01*
X9834110Y-11307865D02*
X9843634Y-11317388D01*
X9843634Y-11317388D02*
X9853158Y-11336436D01*
X9853158Y-11336436D02*
X9862682Y-11374531D01*
X9862682Y-11374531D02*
X9862682Y-11422150D01*
X9862682Y-11422150D02*
X9853158Y-11460246D01*
X9853158Y-11460246D02*
X9843634Y-11479293D01*
X9843634Y-11479293D02*
X9834110Y-11488817D01*
X9834110Y-11488817D02*
X9815063Y-11498341D01*
X9815063Y-11498341D02*
X9796015Y-11498341D01*
X9796015Y-11498341D02*
X9776967Y-11488817D01*
X9776967Y-11488817D02*
X9767444Y-11479293D01*
X9767444Y-11479293D02*
X9757920Y-11460246D01*
X9757920Y-11460246D02*
X9748396Y-11422150D01*
X9748396Y-11422150D02*
X9748396Y-11374531D01*
X9748396Y-11374531D02*
X9757920Y-11336436D01*
X9757920Y-11336436D02*
X9767444Y-11317388D01*
X9767444Y-11317388D02*
X9776967Y-11307865D01*
X9776967Y-11307865D02*
X9796015Y-11298341D01*
X9948396Y-11479293D02*
X9957920Y-11488817D01*
X9957920Y-11488817D02*
X9948396Y-11498341D01*
X9948396Y-11498341D02*
X9938872Y-11488817D01*
X9938872Y-11488817D02*
X9948396Y-11479293D01*
X9948396Y-11479293D02*
X9948396Y-11498341D01*
X10129348Y-11298341D02*
X10091253Y-11298341D01*
X10091253Y-11298341D02*
X10072205Y-11307865D01*
X10072205Y-11307865D02*
X10062682Y-11317388D01*
X10062682Y-11317388D02*
X10043634Y-11345960D01*
X10043634Y-11345960D02*
X10034110Y-11384055D01*
X10034110Y-11384055D02*
X10034110Y-11460246D01*
X10034110Y-11460246D02*
X10043634Y-11479293D01*
X10043634Y-11479293D02*
X10053158Y-11488817D01*
X10053158Y-11488817D02*
X10072205Y-11498341D01*
X10072205Y-11498341D02*
X10110301Y-11498341D01*
X10110301Y-11498341D02*
X10129348Y-11488817D01*
X10129348Y-11488817D02*
X10138872Y-11479293D01*
X10138872Y-11479293D02*
X10148396Y-11460246D01*
X10148396Y-11460246D02*
X10148396Y-11412627D01*
X10148396Y-11412627D02*
X10138872Y-11393579D01*
X10138872Y-11393579D02*
X10129348Y-11384055D01*
X10129348Y-11384055D02*
X10110301Y-11374531D01*
X10110301Y-11374531D02*
X10072205Y-11374531D01*
X10072205Y-11374531D02*
X10053158Y-11384055D01*
X10053158Y-11384055D02*
X10043634Y-11393579D01*
X10043634Y-11393579D02*
X10034110Y-11412627D01*
X10272205Y-11298341D02*
X10291253Y-11298341D01*
X10291253Y-11298341D02*
X10310301Y-11307865D01*
X10310301Y-11307865D02*
X10319825Y-11317388D01*
X10319825Y-11317388D02*
X10329348Y-11336436D01*
X10329348Y-11336436D02*
X10338872Y-11374531D01*
X10338872Y-11374531D02*
X10338872Y-11422150D01*
X10338872Y-11422150D02*
X10329348Y-11460246D01*
X10329348Y-11460246D02*
X10319825Y-11479293D01*
X10319825Y-11479293D02*
X10310301Y-11488817D01*
X10310301Y-11488817D02*
X10291253Y-11498341D01*
X10291253Y-11498341D02*
X10272205Y-11498341D01*
X10272205Y-11498341D02*
X10253158Y-11488817D01*
X10253158Y-11488817D02*
X10243634Y-11479293D01*
X10243634Y-11479293D02*
X10234110Y-11460246D01*
X10234110Y-11460246D02*
X10224586Y-11422150D01*
X10224586Y-11422150D02*
X10224586Y-11374531D01*
X10224586Y-11374531D02*
X10234110Y-11336436D01*
X10234110Y-11336436D02*
X10243634Y-11317388D01*
X10243634Y-11317388D02*
X10253158Y-11307865D01*
X10253158Y-11307865D02*
X10272205Y-11298341D01*
X10462682Y-11298341D02*
X10481729Y-11298341D01*
X10481729Y-11298341D02*
X10500777Y-11307865D01*
X10500777Y-11307865D02*
X10510301Y-11317388D01*
X10510301Y-11317388D02*
X10519825Y-11336436D01*
X10519825Y-11336436D02*
X10529348Y-11374531D01*
X10529348Y-11374531D02*
X10529348Y-11422150D01*
X10529348Y-11422150D02*
X10519825Y-11460246D01*
X10519825Y-11460246D02*
X10510301Y-11479293D01*
X10510301Y-11479293D02*
X10500777Y-11488817D01*
X10500777Y-11488817D02*
X10481729Y-11498341D01*
X10481729Y-11498341D02*
X10462682Y-11498341D01*
X10462682Y-11498341D02*
X10443634Y-11488817D01*
X10443634Y-11488817D02*
X10434110Y-11479293D01*
X10434110Y-11479293D02*
X10424586Y-11460246D01*
X10424586Y-11460246D02*
X10415063Y-11422150D01*
X10415063Y-11422150D02*
X10415063Y-11374531D01*
X10415063Y-11374531D02*
X10424586Y-11336436D01*
X10424586Y-11336436D02*
X10434110Y-11317388D01*
X10434110Y-11317388D02*
X10443634Y-11307865D01*
X10443634Y-11307865D02*
X10462682Y-11298341D01*
X10615063Y-11498341D02*
X10615063Y-11365007D01*
X10615063Y-11384055D02*
X10624586Y-11374531D01*
X10624586Y-11374531D02*
X10643634Y-11365007D01*
X10643634Y-11365007D02*
X10672206Y-11365007D01*
X10672206Y-11365007D02*
X10691253Y-11374531D01*
X10691253Y-11374531D02*
X10700777Y-11393579D01*
X10700777Y-11393579D02*
X10700777Y-11498341D01*
X10700777Y-11393579D02*
X10710301Y-11374531D01*
X10710301Y-11374531D02*
X10729348Y-11365007D01*
X10729348Y-11365007D02*
X10757920Y-11365007D01*
X10757920Y-11365007D02*
X10776967Y-11374531D01*
X10776967Y-11374531D02*
X10786491Y-11393579D01*
X10786491Y-11393579D02*
X10786491Y-11498341D01*
X10881729Y-11498341D02*
X10881729Y-11365007D01*
X10881729Y-11384055D02*
X10891253Y-11374531D01*
X10891253Y-11374531D02*
X10910301Y-11365007D01*
X10910301Y-11365007D02*
X10938872Y-11365007D01*
X10938872Y-11365007D02*
X10957920Y-11374531D01*
X10957920Y-11374531D02*
X10967444Y-11393579D01*
X10967444Y-11393579D02*
X10967444Y-11498341D01*
X10967444Y-11393579D02*
X10976967Y-11374531D01*
X10976967Y-11374531D02*
X10996015Y-11365007D01*
X10996015Y-11365007D02*
X11024586Y-11365007D01*
X11024586Y-11365007D02*
X11043634Y-11374531D01*
X11043634Y-11374531D02*
X11053158Y-11393579D01*
X11053158Y-11393579D02*
X11053158Y-11498341D01*
X11443634Y-11288817D02*
X11272206Y-11545960D01*
X11700777Y-11298341D02*
X11719825Y-11298341D01*
X11719825Y-11298341D02*
X11738872Y-11307865D01*
X11738872Y-11307865D02*
X11748396Y-11317388D01*
X11748396Y-11317388D02*
X11757920Y-11336436D01*
X11757920Y-11336436D02*
X11767444Y-11374531D01*
X11767444Y-11374531D02*
X11767444Y-11422150D01*
X11767444Y-11422150D02*
X11757920Y-11460246D01*
X11757920Y-11460246D02*
X11748396Y-11479293D01*
X11748396Y-11479293D02*
X11738872Y-11488817D01*
X11738872Y-11488817D02*
X11719825Y-11498341D01*
X11719825Y-11498341D02*
X11700777Y-11498341D01*
X11700777Y-11498341D02*
X11681729Y-11488817D01*
X11681729Y-11488817D02*
X11672206Y-11479293D01*
X11672206Y-11479293D02*
X11662682Y-11460246D01*
X11662682Y-11460246D02*
X11653158Y-11422150D01*
X11653158Y-11422150D02*
X11653158Y-11374531D01*
X11653158Y-11374531D02*
X11662682Y-11336436D01*
X11662682Y-11336436D02*
X11672206Y-11317388D01*
X11672206Y-11317388D02*
X11681729Y-11307865D01*
X11681729Y-11307865D02*
X11700777Y-11298341D01*
X11853158Y-11479293D02*
X11862682Y-11488817D01*
X11862682Y-11488817D02*
X11853158Y-11498341D01*
X11853158Y-11498341D02*
X11843634Y-11488817D01*
X11843634Y-11488817D02*
X11853158Y-11479293D01*
X11853158Y-11479293D02*
X11853158Y-11498341D01*
X11986491Y-11298341D02*
X12005539Y-11298341D01*
X12005539Y-11298341D02*
X12024587Y-11307865D01*
X12024587Y-11307865D02*
X12034110Y-11317388D01*
X12034110Y-11317388D02*
X12043634Y-11336436D01*
X12043634Y-11336436D02*
X12053158Y-11374531D01*
X12053158Y-11374531D02*
X12053158Y-11422150D01*
X12053158Y-11422150D02*
X12043634Y-11460246D01*
X12043634Y-11460246D02*
X12034110Y-11479293D01*
X12034110Y-11479293D02*
X12024587Y-11488817D01*
X12024587Y-11488817D02*
X12005539Y-11498341D01*
X12005539Y-11498341D02*
X11986491Y-11498341D01*
X11986491Y-11498341D02*
X11967444Y-11488817D01*
X11967444Y-11488817D02*
X11957920Y-11479293D01*
X11957920Y-11479293D02*
X11948396Y-11460246D01*
X11948396Y-11460246D02*
X11938872Y-11422150D01*
X11938872Y-11422150D02*
X11938872Y-11374531D01*
X11938872Y-11374531D02*
X11948396Y-11336436D01*
X11948396Y-11336436D02*
X11957920Y-11317388D01*
X11957920Y-11317388D02*
X11967444Y-11307865D01*
X11967444Y-11307865D02*
X11986491Y-11298341D01*
X12129348Y-11317388D02*
X12138872Y-11307865D01*
X12138872Y-11307865D02*
X12157920Y-11298341D01*
X12157920Y-11298341D02*
X12205539Y-11298341D01*
X12205539Y-11298341D02*
X12224587Y-11307865D01*
X12224587Y-11307865D02*
X12234110Y-11317388D01*
X12234110Y-11317388D02*
X12243634Y-11336436D01*
X12243634Y-11336436D02*
X12243634Y-11355484D01*
X12243634Y-11355484D02*
X12234110Y-11384055D01*
X12234110Y-11384055D02*
X12119825Y-11498341D01*
X12119825Y-11498341D02*
X12243634Y-11498341D01*
X12310301Y-11298341D02*
X12434110Y-11298341D01*
X12434110Y-11298341D02*
X12367444Y-11374531D01*
X12367444Y-11374531D02*
X12396015Y-11374531D01*
X12396015Y-11374531D02*
X12415063Y-11384055D01*
X12415063Y-11384055D02*
X12424587Y-11393579D01*
X12424587Y-11393579D02*
X12434110Y-11412627D01*
X12434110Y-11412627D02*
X12434110Y-11460246D01*
X12434110Y-11460246D02*
X12424587Y-11479293D01*
X12424587Y-11479293D02*
X12415063Y-11488817D01*
X12415063Y-11488817D02*
X12396015Y-11498341D01*
X12396015Y-11498341D02*
X12338872Y-11498341D01*
X12338872Y-11498341D02*
X12319825Y-11488817D01*
X12319825Y-11488817D02*
X12310301Y-11479293D01*
X12605539Y-11298341D02*
X12567444Y-11298341D01*
X12567444Y-11298341D02*
X12548396Y-11307865D01*
X12548396Y-11307865D02*
X12538872Y-11317388D01*
X12538872Y-11317388D02*
X12519825Y-11345960D01*
X12519825Y-11345960D02*
X12510301Y-11384055D01*
X12510301Y-11384055D02*
X12510301Y-11460246D01*
X12510301Y-11460246D02*
X12519825Y-11479293D01*
X12519825Y-11479293D02*
X12529348Y-11488817D01*
X12529348Y-11488817D02*
X12548396Y-11498341D01*
X12548396Y-11498341D02*
X12586491Y-11498341D01*
X12586491Y-11498341D02*
X12605539Y-11488817D01*
X12605539Y-11488817D02*
X12615063Y-11479293D01*
X12615063Y-11479293D02*
X12624587Y-11460246D01*
X12624587Y-11460246D02*
X12624587Y-11412627D01*
X12624587Y-11412627D02*
X12615063Y-11393579D01*
X12615063Y-11393579D02*
X12605539Y-11384055D01*
X12605539Y-11384055D02*
X12586491Y-11374531D01*
X12586491Y-11374531D02*
X12548396Y-11374531D01*
X12548396Y-11374531D02*
X12529348Y-11384055D01*
X12529348Y-11384055D02*
X12519825Y-11393579D01*
X12519825Y-11393579D02*
X12510301Y-11412627D01*
X12700777Y-11298341D02*
X12700777Y-11336436D01*
X12776968Y-11298341D02*
X12776968Y-11336436D01*
X13072206Y-11574531D02*
X13062682Y-11565007D01*
X13062682Y-11565007D02*
X13043634Y-11536436D01*
X13043634Y-11536436D02*
X13034110Y-11517388D01*
X13034110Y-11517388D02*
X13024587Y-11488817D01*
X13024587Y-11488817D02*
X13015063Y-11441198D01*
X13015063Y-11441198D02*
X13015063Y-11403103D01*
X13015063Y-11403103D02*
X13024587Y-11355484D01*
X13024587Y-11355484D02*
X13034110Y-11326912D01*
X13034110Y-11326912D02*
X13043634Y-11307865D01*
X13043634Y-11307865D02*
X13062682Y-11279293D01*
X13062682Y-11279293D02*
X13072206Y-11269769D01*
X13253158Y-11498341D02*
X13138872Y-11498341D01*
X13196015Y-11498341D02*
X13196015Y-11298341D01*
X13196015Y-11298341D02*
X13176968Y-11326912D01*
X13176968Y-11326912D02*
X13157920Y-11345960D01*
X13157920Y-11345960D02*
X13138872Y-11355484D01*
X13319825Y-11298341D02*
X13443634Y-11298341D01*
X13443634Y-11298341D02*
X13376968Y-11374531D01*
X13376968Y-11374531D02*
X13405539Y-11374531D01*
X13405539Y-11374531D02*
X13424587Y-11384055D01*
X13424587Y-11384055D02*
X13434110Y-11393579D01*
X13434110Y-11393579D02*
X13443634Y-11412627D01*
X13443634Y-11412627D02*
X13443634Y-11460246D01*
X13443634Y-11460246D02*
X13434110Y-11479293D01*
X13434110Y-11479293D02*
X13424587Y-11488817D01*
X13424587Y-11488817D02*
X13405539Y-11498341D01*
X13405539Y-11498341D02*
X13348396Y-11498341D01*
X13348396Y-11498341D02*
X13329349Y-11488817D01*
X13329349Y-11488817D02*
X13319825Y-11479293D01*
X13681730Y-11498341D02*
X13681730Y-11298341D01*
X13767444Y-11498341D02*
X13767444Y-11393579D01*
X13767444Y-11393579D02*
X13757920Y-11374531D01*
X13757920Y-11374531D02*
X13738872Y-11365007D01*
X13738872Y-11365007D02*
X13710301Y-11365007D01*
X13710301Y-11365007D02*
X13691253Y-11374531D01*
X13691253Y-11374531D02*
X13681730Y-11384055D01*
X13891253Y-11498341D02*
X13872206Y-11488817D01*
X13872206Y-11488817D02*
X13862682Y-11479293D01*
X13862682Y-11479293D02*
X13853158Y-11460246D01*
X13853158Y-11460246D02*
X13853158Y-11403103D01*
X13853158Y-11403103D02*
X13862682Y-11384055D01*
X13862682Y-11384055D02*
X13872206Y-11374531D01*
X13872206Y-11374531D02*
X13891253Y-11365007D01*
X13891253Y-11365007D02*
X13919825Y-11365007D01*
X13919825Y-11365007D02*
X13938872Y-11374531D01*
X13938872Y-11374531D02*
X13948396Y-11384055D01*
X13948396Y-11384055D02*
X13957920Y-11403103D01*
X13957920Y-11403103D02*
X13957920Y-11460246D01*
X13957920Y-11460246D02*
X13948396Y-11479293D01*
X13948396Y-11479293D02*
X13938872Y-11488817D01*
X13938872Y-11488817D02*
X13919825Y-11498341D01*
X13919825Y-11498341D02*
X13891253Y-11498341D01*
X14072206Y-11498341D02*
X14053158Y-11488817D01*
X14053158Y-11488817D02*
X14043634Y-11469769D01*
X14043634Y-11469769D02*
X14043634Y-11298341D01*
X14224587Y-11488817D02*
X14205539Y-11498341D01*
X14205539Y-11498341D02*
X14167444Y-11498341D01*
X14167444Y-11498341D02*
X14148396Y-11488817D01*
X14148396Y-11488817D02*
X14138872Y-11469769D01*
X14138872Y-11469769D02*
X14138872Y-11393579D01*
X14138872Y-11393579D02*
X14148396Y-11374531D01*
X14148396Y-11374531D02*
X14167444Y-11365007D01*
X14167444Y-11365007D02*
X14205539Y-11365007D01*
X14205539Y-11365007D02*
X14224587Y-11374531D01*
X14224587Y-11374531D02*
X14234111Y-11393579D01*
X14234111Y-11393579D02*
X14234111Y-11412627D01*
X14234111Y-11412627D02*
X14138872Y-11431674D01*
X14310301Y-11488817D02*
X14329349Y-11498341D01*
X14329349Y-11498341D02*
X14367444Y-11498341D01*
X14367444Y-11498341D02*
X14386492Y-11488817D01*
X14386492Y-11488817D02*
X14396015Y-11469769D01*
X14396015Y-11469769D02*
X14396015Y-11460246D01*
X14396015Y-11460246D02*
X14386492Y-11441198D01*
X14386492Y-11441198D02*
X14367444Y-11431674D01*
X14367444Y-11431674D02*
X14338872Y-11431674D01*
X14338872Y-11431674D02*
X14319825Y-11422150D01*
X14319825Y-11422150D02*
X14310301Y-11403103D01*
X14310301Y-11403103D02*
X14310301Y-11393579D01*
X14310301Y-11393579D02*
X14319825Y-11374531D01*
X14319825Y-11374531D02*
X14338872Y-11365007D01*
X14338872Y-11365007D02*
X14367444Y-11365007D01*
X14367444Y-11365007D02*
X14386492Y-11374531D01*
X14462682Y-11574531D02*
X14472206Y-11565007D01*
X14472206Y-11565007D02*
X14491253Y-11536436D01*
X14491253Y-11536436D02*
X14500777Y-11517388D01*
X14500777Y-11517388D02*
X14510301Y-11488817D01*
X14510301Y-11488817D02*
X14519825Y-11441198D01*
X14519825Y-11441198D02*
X14519825Y-11403103D01*
X14519825Y-11403103D02*
X14510301Y-11355484D01*
X14510301Y-11355484D02*
X14500777Y-11326912D01*
X14500777Y-11326912D02*
X14491253Y-11307865D01*
X14491253Y-11307865D02*
X14472206Y-11279293D01*
X14472206Y-11279293D02*
X14462682Y-11269769D01*
X9397143Y-11570857D02*
X9397143Y-11770857D01*
X9297143Y-11670857D02*
X9497143Y-11670857D01*
X9738872Y-11562341D02*
X9862682Y-11562341D01*
X9862682Y-11562341D02*
X9796015Y-11638531D01*
X9796015Y-11638531D02*
X9824586Y-11638531D01*
X9824586Y-11638531D02*
X9843634Y-11648055D01*
X9843634Y-11648055D02*
X9853158Y-11657579D01*
X9853158Y-11657579D02*
X9862682Y-11676627D01*
X9862682Y-11676627D02*
X9862682Y-11724246D01*
X9862682Y-11724246D02*
X9853158Y-11743293D01*
X9853158Y-11743293D02*
X9843634Y-11752817D01*
X9843634Y-11752817D02*
X9824586Y-11762341D01*
X9824586Y-11762341D02*
X9767444Y-11762341D01*
X9767444Y-11762341D02*
X9748396Y-11752817D01*
X9748396Y-11752817D02*
X9738872Y-11743293D01*
X9948396Y-11743293D02*
X9957920Y-11752817D01*
X9957920Y-11752817D02*
X9948396Y-11762341D01*
X9948396Y-11762341D02*
X9938872Y-11752817D01*
X9938872Y-11752817D02*
X9948396Y-11743293D01*
X9948396Y-11743293D02*
X9948396Y-11762341D01*
X10034110Y-11581388D02*
X10043634Y-11571865D01*
X10043634Y-11571865D02*
X10062682Y-11562341D01*
X10062682Y-11562341D02*
X10110301Y-11562341D01*
X10110301Y-11562341D02*
X10129348Y-11571865D01*
X10129348Y-11571865D02*
X10138872Y-11581388D01*
X10138872Y-11581388D02*
X10148396Y-11600436D01*
X10148396Y-11600436D02*
X10148396Y-11619484D01*
X10148396Y-11619484D02*
X10138872Y-11648055D01*
X10138872Y-11648055D02*
X10024586Y-11762341D01*
X10024586Y-11762341D02*
X10148396Y-11762341D01*
X10272205Y-11562341D02*
X10291253Y-11562341D01*
X10291253Y-11562341D02*
X10310301Y-11571865D01*
X10310301Y-11571865D02*
X10319825Y-11581388D01*
X10319825Y-11581388D02*
X10329348Y-11600436D01*
X10329348Y-11600436D02*
X10338872Y-11638531D01*
X10338872Y-11638531D02*
X10338872Y-11686150D01*
X10338872Y-11686150D02*
X10329348Y-11724246D01*
X10329348Y-11724246D02*
X10319825Y-11743293D01*
X10319825Y-11743293D02*
X10310301Y-11752817D01*
X10310301Y-11752817D02*
X10291253Y-11762341D01*
X10291253Y-11762341D02*
X10272205Y-11762341D01*
X10272205Y-11762341D02*
X10253158Y-11752817D01*
X10253158Y-11752817D02*
X10243634Y-11743293D01*
X10243634Y-11743293D02*
X10234110Y-11724246D01*
X10234110Y-11724246D02*
X10224586Y-11686150D01*
X10224586Y-11686150D02*
X10224586Y-11638531D01*
X10224586Y-11638531D02*
X10234110Y-11600436D01*
X10234110Y-11600436D02*
X10243634Y-11581388D01*
X10243634Y-11581388D02*
X10253158Y-11571865D01*
X10253158Y-11571865D02*
X10272205Y-11562341D01*
X10462682Y-11562341D02*
X10481729Y-11562341D01*
X10481729Y-11562341D02*
X10500777Y-11571865D01*
X10500777Y-11571865D02*
X10510301Y-11581388D01*
X10510301Y-11581388D02*
X10519825Y-11600436D01*
X10519825Y-11600436D02*
X10529348Y-11638531D01*
X10529348Y-11638531D02*
X10529348Y-11686150D01*
X10529348Y-11686150D02*
X10519825Y-11724246D01*
X10519825Y-11724246D02*
X10510301Y-11743293D01*
X10510301Y-11743293D02*
X10500777Y-11752817D01*
X10500777Y-11752817D02*
X10481729Y-11762341D01*
X10481729Y-11762341D02*
X10462682Y-11762341D01*
X10462682Y-11762341D02*
X10443634Y-11752817D01*
X10443634Y-11752817D02*
X10434110Y-11743293D01*
X10434110Y-11743293D02*
X10424586Y-11724246D01*
X10424586Y-11724246D02*
X10415063Y-11686150D01*
X10415063Y-11686150D02*
X10415063Y-11638531D01*
X10415063Y-11638531D02*
X10424586Y-11600436D01*
X10424586Y-11600436D02*
X10434110Y-11581388D01*
X10434110Y-11581388D02*
X10443634Y-11571865D01*
X10443634Y-11571865D02*
X10462682Y-11562341D01*
X10615063Y-11762341D02*
X10615063Y-11629007D01*
X10615063Y-11648055D02*
X10624586Y-11638531D01*
X10624586Y-11638531D02*
X10643634Y-11629007D01*
X10643634Y-11629007D02*
X10672206Y-11629007D01*
X10672206Y-11629007D02*
X10691253Y-11638531D01*
X10691253Y-11638531D02*
X10700777Y-11657579D01*
X10700777Y-11657579D02*
X10700777Y-11762341D01*
X10700777Y-11657579D02*
X10710301Y-11638531D01*
X10710301Y-11638531D02*
X10729348Y-11629007D01*
X10729348Y-11629007D02*
X10757920Y-11629007D01*
X10757920Y-11629007D02*
X10776967Y-11638531D01*
X10776967Y-11638531D02*
X10786491Y-11657579D01*
X10786491Y-11657579D02*
X10786491Y-11762341D01*
X10881729Y-11762341D02*
X10881729Y-11629007D01*
X10881729Y-11648055D02*
X10891253Y-11638531D01*
X10891253Y-11638531D02*
X10910301Y-11629007D01*
X10910301Y-11629007D02*
X10938872Y-11629007D01*
X10938872Y-11629007D02*
X10957920Y-11638531D01*
X10957920Y-11638531D02*
X10967444Y-11657579D01*
X10967444Y-11657579D02*
X10967444Y-11762341D01*
X10967444Y-11657579D02*
X10976967Y-11638531D01*
X10976967Y-11638531D02*
X10996015Y-11629007D01*
X10996015Y-11629007D02*
X11024586Y-11629007D01*
X11024586Y-11629007D02*
X11043634Y-11638531D01*
X11043634Y-11638531D02*
X11053158Y-11657579D01*
X11053158Y-11657579D02*
X11053158Y-11762341D01*
X11443634Y-11552817D02*
X11272206Y-11809960D01*
X11700777Y-11562341D02*
X11719825Y-11562341D01*
X11719825Y-11562341D02*
X11738872Y-11571865D01*
X11738872Y-11571865D02*
X11748396Y-11581388D01*
X11748396Y-11581388D02*
X11757920Y-11600436D01*
X11757920Y-11600436D02*
X11767444Y-11638531D01*
X11767444Y-11638531D02*
X11767444Y-11686150D01*
X11767444Y-11686150D02*
X11757920Y-11724246D01*
X11757920Y-11724246D02*
X11748396Y-11743293D01*
X11748396Y-11743293D02*
X11738872Y-11752817D01*
X11738872Y-11752817D02*
X11719825Y-11762341D01*
X11719825Y-11762341D02*
X11700777Y-11762341D01*
X11700777Y-11762341D02*
X11681729Y-11752817D01*
X11681729Y-11752817D02*
X11672206Y-11743293D01*
X11672206Y-11743293D02*
X11662682Y-11724246D01*
X11662682Y-11724246D02*
X11653158Y-11686150D01*
X11653158Y-11686150D02*
X11653158Y-11638531D01*
X11653158Y-11638531D02*
X11662682Y-11600436D01*
X11662682Y-11600436D02*
X11672206Y-11581388D01*
X11672206Y-11581388D02*
X11681729Y-11571865D01*
X11681729Y-11571865D02*
X11700777Y-11562341D01*
X11853158Y-11743293D02*
X11862682Y-11752817D01*
X11862682Y-11752817D02*
X11853158Y-11762341D01*
X11853158Y-11762341D02*
X11843634Y-11752817D01*
X11843634Y-11752817D02*
X11853158Y-11743293D01*
X11853158Y-11743293D02*
X11853158Y-11762341D01*
X12053158Y-11762341D02*
X11938872Y-11762341D01*
X11996015Y-11762341D02*
X11996015Y-11562341D01*
X11996015Y-11562341D02*
X11976967Y-11590912D01*
X11976967Y-11590912D02*
X11957920Y-11609960D01*
X11957920Y-11609960D02*
X11938872Y-11619484D01*
X12129348Y-11581388D02*
X12138872Y-11571865D01*
X12138872Y-11571865D02*
X12157920Y-11562341D01*
X12157920Y-11562341D02*
X12205539Y-11562341D01*
X12205539Y-11562341D02*
X12224587Y-11571865D01*
X12224587Y-11571865D02*
X12234110Y-11581388D01*
X12234110Y-11581388D02*
X12243634Y-11600436D01*
X12243634Y-11600436D02*
X12243634Y-11619484D01*
X12243634Y-11619484D02*
X12234110Y-11648055D01*
X12234110Y-11648055D02*
X12119825Y-11762341D01*
X12119825Y-11762341D02*
X12243634Y-11762341D01*
X12415063Y-11562341D02*
X12376967Y-11562341D01*
X12376967Y-11562341D02*
X12357920Y-11571865D01*
X12357920Y-11571865D02*
X12348396Y-11581388D01*
X12348396Y-11581388D02*
X12329348Y-11609960D01*
X12329348Y-11609960D02*
X12319825Y-11648055D01*
X12319825Y-11648055D02*
X12319825Y-11724246D01*
X12319825Y-11724246D02*
X12329348Y-11743293D01*
X12329348Y-11743293D02*
X12338872Y-11752817D01*
X12338872Y-11752817D02*
X12357920Y-11762341D01*
X12357920Y-11762341D02*
X12396015Y-11762341D01*
X12396015Y-11762341D02*
X12415063Y-11752817D01*
X12415063Y-11752817D02*
X12424587Y-11743293D01*
X12424587Y-11743293D02*
X12434110Y-11724246D01*
X12434110Y-11724246D02*
X12434110Y-11676627D01*
X12434110Y-11676627D02*
X12424587Y-11657579D01*
X12424587Y-11657579D02*
X12415063Y-11648055D01*
X12415063Y-11648055D02*
X12396015Y-11638531D01*
X12396015Y-11638531D02*
X12357920Y-11638531D01*
X12357920Y-11638531D02*
X12338872Y-11648055D01*
X12338872Y-11648055D02*
X12329348Y-11657579D01*
X12329348Y-11657579D02*
X12319825Y-11676627D01*
X12557920Y-11562341D02*
X12576968Y-11562341D01*
X12576968Y-11562341D02*
X12596015Y-11571865D01*
X12596015Y-11571865D02*
X12605539Y-11581388D01*
X12605539Y-11581388D02*
X12615063Y-11600436D01*
X12615063Y-11600436D02*
X12624587Y-11638531D01*
X12624587Y-11638531D02*
X12624587Y-11686150D01*
X12624587Y-11686150D02*
X12615063Y-11724246D01*
X12615063Y-11724246D02*
X12605539Y-11743293D01*
X12605539Y-11743293D02*
X12596015Y-11752817D01*
X12596015Y-11752817D02*
X12576968Y-11762341D01*
X12576968Y-11762341D02*
X12557920Y-11762341D01*
X12557920Y-11762341D02*
X12538872Y-11752817D01*
X12538872Y-11752817D02*
X12529348Y-11743293D01*
X12529348Y-11743293D02*
X12519825Y-11724246D01*
X12519825Y-11724246D02*
X12510301Y-11686150D01*
X12510301Y-11686150D02*
X12510301Y-11638531D01*
X12510301Y-11638531D02*
X12519825Y-11600436D01*
X12519825Y-11600436D02*
X12529348Y-11581388D01*
X12529348Y-11581388D02*
X12538872Y-11571865D01*
X12538872Y-11571865D02*
X12557920Y-11562341D01*
X12700777Y-11562341D02*
X12700777Y-11600436D01*
X12776968Y-11562341D02*
X12776968Y-11600436D01*
X13072206Y-11838531D02*
X13062682Y-11829007D01*
X13062682Y-11829007D02*
X13043634Y-11800436D01*
X13043634Y-11800436D02*
X13034110Y-11781388D01*
X13034110Y-11781388D02*
X13024587Y-11752817D01*
X13024587Y-11752817D02*
X13015063Y-11705198D01*
X13015063Y-11705198D02*
X13015063Y-11667103D01*
X13015063Y-11667103D02*
X13024587Y-11619484D01*
X13024587Y-11619484D02*
X13034110Y-11590912D01*
X13034110Y-11590912D02*
X13043634Y-11571865D01*
X13043634Y-11571865D02*
X13062682Y-11543293D01*
X13062682Y-11543293D02*
X13072206Y-11533769D01*
X13234110Y-11629007D02*
X13234110Y-11762341D01*
X13186491Y-11552817D02*
X13138872Y-11695674D01*
X13138872Y-11695674D02*
X13262682Y-11695674D01*
X13491253Y-11762341D02*
X13491253Y-11562341D01*
X13576968Y-11762341D02*
X13576968Y-11657579D01*
X13576968Y-11657579D02*
X13567444Y-11638531D01*
X13567444Y-11638531D02*
X13548396Y-11629007D01*
X13548396Y-11629007D02*
X13519825Y-11629007D01*
X13519825Y-11629007D02*
X13500777Y-11638531D01*
X13500777Y-11638531D02*
X13491253Y-11648055D01*
X13700777Y-11762341D02*
X13681730Y-11752817D01*
X13681730Y-11752817D02*
X13672206Y-11743293D01*
X13672206Y-11743293D02*
X13662682Y-11724246D01*
X13662682Y-11724246D02*
X13662682Y-11667103D01*
X13662682Y-11667103D02*
X13672206Y-11648055D01*
X13672206Y-11648055D02*
X13681730Y-11638531D01*
X13681730Y-11638531D02*
X13700777Y-11629007D01*
X13700777Y-11629007D02*
X13729349Y-11629007D01*
X13729349Y-11629007D02*
X13748396Y-11638531D01*
X13748396Y-11638531D02*
X13757920Y-11648055D01*
X13757920Y-11648055D02*
X13767444Y-11667103D01*
X13767444Y-11667103D02*
X13767444Y-11724246D01*
X13767444Y-11724246D02*
X13757920Y-11743293D01*
X13757920Y-11743293D02*
X13748396Y-11752817D01*
X13748396Y-11752817D02*
X13729349Y-11762341D01*
X13729349Y-11762341D02*
X13700777Y-11762341D01*
X13881730Y-11762341D02*
X13862682Y-11752817D01*
X13862682Y-11752817D02*
X13853158Y-11733769D01*
X13853158Y-11733769D02*
X13853158Y-11562341D01*
X14034111Y-11752817D02*
X14015063Y-11762341D01*
X14015063Y-11762341D02*
X13976968Y-11762341D01*
X13976968Y-11762341D02*
X13957920Y-11752817D01*
X13957920Y-11752817D02*
X13948396Y-11733769D01*
X13948396Y-11733769D02*
X13948396Y-11657579D01*
X13948396Y-11657579D02*
X13957920Y-11638531D01*
X13957920Y-11638531D02*
X13976968Y-11629007D01*
X13976968Y-11629007D02*
X14015063Y-11629007D01*
X14015063Y-11629007D02*
X14034111Y-11638531D01*
X14034111Y-11638531D02*
X14043634Y-11657579D01*
X14043634Y-11657579D02*
X14043634Y-11676627D01*
X14043634Y-11676627D02*
X13948396Y-11695674D01*
X14119825Y-11752817D02*
X14138872Y-11762341D01*
X14138872Y-11762341D02*
X14176968Y-11762341D01*
X14176968Y-11762341D02*
X14196015Y-11752817D01*
X14196015Y-11752817D02*
X14205539Y-11733769D01*
X14205539Y-11733769D02*
X14205539Y-11724246D01*
X14205539Y-11724246D02*
X14196015Y-11705198D01*
X14196015Y-11705198D02*
X14176968Y-11695674D01*
X14176968Y-11695674D02*
X14148396Y-11695674D01*
X14148396Y-11695674D02*
X14129349Y-11686150D01*
X14129349Y-11686150D02*
X14119825Y-11667103D01*
X14119825Y-11667103D02*
X14119825Y-11657579D01*
X14119825Y-11657579D02*
X14129349Y-11638531D01*
X14129349Y-11638531D02*
X14148396Y-11629007D01*
X14148396Y-11629007D02*
X14176968Y-11629007D01*
X14176968Y-11629007D02*
X14196015Y-11638531D01*
X14272206Y-11838531D02*
X14281730Y-11829007D01*
X14281730Y-11829007D02*
X14300777Y-11800436D01*
X14300777Y-11800436D02*
X14310301Y-11781388D01*
X14310301Y-11781388D02*
X14319825Y-11752817D01*
X14319825Y-11752817D02*
X14329349Y-11705198D01*
X14329349Y-11705198D02*
X14329349Y-11667103D01*
X14329349Y-11667103D02*
X14319825Y-11619484D01*
X14319825Y-11619484D02*
X14310301Y-11590912D01*
X14310301Y-11590912D02*
X14300777Y-11571865D01*
X14300777Y-11571865D02*
X14281730Y-11543293D01*
X14281730Y-11543293D02*
X14272206Y-11533769D01*
M02*
