M48
; DRILL file {KiCad 8.0.7} date 2024-12-28T18:39:16-0500
; FORMAT={-:-/ absolute / inch / decimal}
; #@! TF.CreationDate,2024-12-28T18:39:16-05:00
; #@! TF.GenerationSoftware,Kicad,Pcbnew,8.0.7
; #@! TF.FileFunction,Plated,1,2,PTH
FMAT,2
INCH
; #@! TA.AperFunction,Plated,PTH,ViaDrill
T1C0.0118
; #@! TA.AperFunction,Plated,PTH,ComponentDrill
T2C0.0236
; #@! TA.AperFunction,Plated,PTH,ComponentDrill
T3C0.1260
%
G90
G05
T1
X4.685Y-1.6535
X5.2953Y-1.5365
X5.3346Y-1.5365
X6.0365Y-2.3494
T2
X4.8031Y-2.3228
X4.8031Y-2.4311
X4.9213Y-2.3228
X4.9213Y-2.4311
X5.2756Y-2.2539
X5.2756Y-2.3622
X5.3937Y-2.2539
X5.3937Y-2.3622
X5.5807Y-1.8406
X5.5807Y-1.9744
X5.689Y-1.9744
X5.7087Y-2.5197
X5.8268Y-2.5197
T3
X4.5613Y-2.1991
X4.5613Y-3.3127
X5.6749Y-2.1991
X5.6749Y-3.3127
M30
