%TF.GenerationSoftware,KiCad,Pcbnew,8.0.7*%
%TF.CreationDate,2024-12-28T18:39:16-05:00*%
%TF.ProjectId,nob,6e6f622e-6b69-4636-9164-5f7063625858,rev?*%
%TF.SameCoordinates,Original*%
%TF.FileFunction,Soldermask,Bot*%
%TF.FilePolarity,Negative*%
%FSLAX46Y46*%
G04 Gerber Fmt 4.6, Leading zero omitted, Abs format (unit mm)*
G04 Created by KiCad (PCBNEW 8.0.7) date 2024-12-28 18:39:16*
%MOMM*%
%LPD*%
G01*
G04 APERTURE LIST*
G04 Aperture macros list*
%AMRoundRect*
0 Rectangle with rounded corners*
0 $1 Rounding radius*
0 $2 $3 $4 $5 $6 $7 $8 $9 X,Y pos of 4 corners*
0 Add a 4 corners polygon primitive as box body*
4,1,4,$2,$3,$4,$5,$6,$7,$8,$9,$2,$3,0*
0 Add four circle primitives for the rounded corners*
1,1,$1+$1,$2,$3*
1,1,$1+$1,$4,$5*
1,1,$1+$1,$6,$7*
1,1,$1+$1,$8,$9*
0 Add four rect primitives between the rounded corners*
20,1,$1+$1,$2,$3,$4,$5,0*
20,1,$1+$1,$4,$5,$6,$7,0*
20,1,$1+$1,$6,$7,$8,$9,0*
20,1,$1+$1,$8,$9,$2,$3,0*%
G04 Aperture macros list end*
%ADD10RoundRect,0.250000X0.550000X0.550000X-0.550000X0.550000X-0.550000X-0.550000X0.550000X-0.550000X0*%
%ADD11RoundRect,0.250000X-0.550000X-0.550000X0.550000X-0.550000X0.550000X0.550000X-0.550000X0.550000X0*%
%ADD12C,3.600000*%
%ADD13C,5.600000*%
%ADD14RoundRect,0.250000X0.397383X0.360849X-0.072464X0.531859X-0.397383X-0.360849X0.072464X-0.531859X0*%
%ADD15RoundRect,0.250000X0.511196X-0.163719X0.424372X0.328685X-0.511196X0.163719X-0.424372X-0.328685X0*%
%ADD16RoundRect,0.250000X0.163719X0.511196X-0.328685X0.424372X-0.163719X-0.511196X0.328685X-0.424372X0*%
%ADD17RoundRect,0.090000X0.391577X0.641769X-0.751577X-0.018231X-0.391577X-0.641769X0.751577X0.018231X0*%
%ADD18RoundRect,0.090000X-0.360000X0.660000X-0.360000X-0.660000X0.360000X-0.660000X0.360000X0.660000X0*%
%ADD19RoundRect,0.090000X0.751577X-0.018231X-0.391577X0.641769X-0.751577X0.018231X0.391577X-0.641769X0*%
%ADD20RoundRect,0.090000X-0.660000X-0.360000X0.660000X-0.360000X0.660000X0.360000X-0.660000X0.360000X0*%
%ADD21RoundRect,0.090000X0.660000X0.360000X-0.660000X0.360000X-0.660000X-0.360000X0.660000X-0.360000X0*%
%ADD22RoundRect,0.250000X-0.163719X-0.511196X0.328685X-0.424372X0.163719X0.511196X-0.328685X0.424372X0*%
%ADD23RoundRect,0.250000X-0.113813X0.524568X-0.496835X0.203174X0.113813X-0.524568X0.496835X-0.203174X0*%
%ADD24RoundRect,0.090000X-0.641769X0.391577X0.018231X-0.751577X0.641769X-0.391577X-0.018231X0.751577X0*%
%ADD25RoundRect,0.250000X0.360849X-0.397383X0.531859X0.072464X-0.360849X0.397383X-0.531859X-0.072464X0*%
%ADD26RoundRect,0.090000X0.641769X-0.391577X-0.018231X0.751577X-0.641769X0.391577X0.018231X-0.751577X0*%
%ADD27RoundRect,0.090000X0.018231X0.751577X-0.641769X-0.391577X-0.018231X-0.751577X0.641769X0.391577X0*%
%ADD28RoundRect,0.090000X-0.751577X0.018231X0.391577X-0.641769X0.751577X-0.018231X-0.391577X0.641769X0*%
%ADD29RoundRect,0.250000X0.113813X-0.524568X0.496835X-0.203174X-0.113813X0.524568X-0.496835X0.203174X0*%
%ADD30RoundRect,0.090000X0.360000X-0.660000X0.360000X0.660000X-0.360000X0.660000X-0.360000X-0.660000X0*%
%ADD31RoundRect,0.250000X-0.360849X0.397383X-0.531859X-0.072464X0.360849X-0.397383X0.531859X0.072464X0*%
%ADD32RoundRect,0.250000X0.524568X0.113813X0.203174X0.496835X-0.524568X-0.113813X-0.203174X-0.496835X0*%
%ADD33RoundRect,0.250000X-0.511196X0.163719X-0.424372X-0.328685X0.511196X-0.163719X0.424372X0.328685X0*%
%ADD34RoundRect,0.090000X-0.018231X-0.751577X0.641769X0.391577X0.018231X0.751577X-0.641769X-0.391577X0*%
%ADD35RoundRect,0.250000X-0.524568X-0.113813X-0.203174X-0.496835X0.524568X0.113813X0.203174X0.496835X0*%
%ADD36RoundRect,0.090000X-0.391577X-0.641769X0.751577X0.018231X0.391577X0.641769X-0.751577X-0.018231X0*%
%ADD37RoundRect,0.250000X-0.397383X-0.360849X0.072464X-0.531859X0.397383X0.360849X-0.072464X0.531859X0*%
G04 APERTURE END LIST*
D10*
%TO.C,G8*%
X137000000Y-60000000D03*
%TD*%
D11*
%TO.C,G9*%
X137000000Y-57250000D03*
%TD*%
D10*
%TO.C,P0*%
X141750000Y-50150000D03*
%TD*%
D12*
%TO.C,H3*%
X115857864Y-55857864D03*
D13*
X115857864Y-55857864D03*
%TD*%
D12*
%TO.C,H2*%
X115857864Y-84142136D03*
D13*
X115857864Y-84142136D03*
%TD*%
D11*
%TO.C,G2*%
X122000000Y-59000000D03*
%TD*%
D12*
%TO.C,H1*%
X144142136Y-84142136D03*
D13*
X144142136Y-84142136D03*
%TD*%
D11*
%TO.C,G3*%
X125000000Y-61750000D03*
%TD*%
D10*
%TO.C,G7*%
X134000000Y-60000000D03*
%TD*%
D11*
%TO.C,P1.5*%
X144500000Y-50150000D03*
%TD*%
%TO.C,G10*%
X134000000Y-57250000D03*
%TD*%
%TO.C,P10*%
X122000000Y-61750000D03*
%TD*%
D12*
%TO.C,H4*%
X144142136Y-55857864D03*
D13*
X144142136Y-55857864D03*
%TD*%
D11*
%TO.C,G4*%
X125000000Y-59000000D03*
%TD*%
D10*
%TO.C,P1*%
X141750000Y-46750000D03*
%TD*%
D14*
%TO.C,C13*%
X159083487Y-80585523D03*
X157298071Y-79935685D03*
%TD*%
D15*
%TO.C,C11*%
X135374411Y-100479800D03*
X135044479Y-98608666D03*
%TD*%
D16*
%TO.C,C2*%
X160479800Y-64625589D03*
X158608666Y-64955521D03*
%TD*%
D17*
%TO.C,D5*%
X146296762Y-93326820D03*
X147946762Y-96184704D03*
X143703238Y-98634704D03*
X142053238Y-95776820D03*
%TD*%
D18*
%TO.C,D7*%
X158350000Y-67550000D03*
X161650000Y-67550000D03*
X161650000Y-72450000D03*
X158350000Y-72450000D03*
%TD*%
D19*
%TO.C,D3*%
X117946762Y-95776820D03*
X116296762Y-98634704D03*
X112053238Y-96184704D03*
X113703238Y-93326820D03*
%TD*%
D20*
%TO.C,D10*%
X127550000Y-41650000D03*
X127550000Y-38350000D03*
X132450000Y-38350000D03*
X132450000Y-41650000D03*
%TD*%
D21*
%TO.C,D4*%
X132450000Y-98350000D03*
X132450000Y-101650000D03*
X127550000Y-101650000D03*
X127550000Y-98350000D03*
%TD*%
D22*
%TO.C,C8*%
X99520200Y-75374411D03*
X101391334Y-75044479D03*
%TD*%
D23*
%TO.C,C3*%
X153709075Y-50105724D03*
X152253591Y-51327020D03*
%TD*%
D11*
%TO.C,BAT_P1*%
X145000000Y-64000000D03*
%TD*%
%TO.C,BAT_N1*%
X148000000Y-64000000D03*
%TD*%
D24*
%TO.C,D8*%
X153326820Y-53703238D03*
X156184704Y-52053238D03*
X158634704Y-56296762D03*
X155776820Y-57946762D03*
%TD*%
D25*
%TO.C,C10*%
X119414477Y-99083487D03*
X120064315Y-97298071D03*
%TD*%
D26*
%TO.C,D2*%
X106673180Y-86296762D03*
X103815296Y-87946762D03*
X101365296Y-83703238D03*
X104223180Y-82053238D03*
%TD*%
D27*
%TO.C,D6*%
X155776820Y-82053238D03*
X158634704Y-83703238D03*
X156184704Y-87946762D03*
X153326820Y-86296762D03*
%TD*%
D28*
%TO.C,D9*%
X142053238Y-44223180D03*
X143703238Y-41365296D03*
X147946762Y-43815296D03*
X146296762Y-46673180D03*
%TD*%
D29*
%TO.C,C9*%
X106290925Y-89894276D03*
X107746409Y-88672980D03*
%TD*%
D30*
%TO.C,D1*%
X101650000Y-72450000D03*
X98350000Y-72450000D03*
X98350000Y-67550000D03*
X101650000Y-67550000D03*
%TD*%
D31*
%TO.C,C4*%
X140585523Y-40916513D03*
X139935685Y-42701929D03*
%TD*%
D32*
%TO.C,C12*%
X149894276Y-93709075D03*
X148672980Y-92253591D03*
%TD*%
D33*
%TO.C,C5*%
X124625589Y-39520200D03*
X124955521Y-41391334D03*
%TD*%
D34*
%TO.C,D12*%
X104223180Y-57946762D03*
X101365296Y-56296762D03*
X103815296Y-52053238D03*
X106673180Y-53703238D03*
%TD*%
D35*
%TO.C,C6*%
X110105724Y-46290925D03*
X111327020Y-47746409D03*
%TD*%
D36*
%TO.C,D11*%
X113703238Y-46673180D03*
X112053238Y-43815296D03*
X116296762Y-41365296D03*
X117946762Y-44223180D03*
%TD*%
D37*
%TO.C,C7*%
X100916513Y-59414477D03*
X102701929Y-60064315D03*
%TD*%
M02*
