%TF.GenerationSoftware,KiCad,Pcbnew,8.0.7*%
%TF.CreationDate,2024-12-28T18:39:16-05:00*%
%TF.ProjectId,nob,6e6f622e-6b69-4636-9164-5f7063625858,rev?*%
%TF.SameCoordinates,Original*%
%TF.FileFunction,Soldermask,Top*%
%TF.FilePolarity,Negative*%
%FSLAX46Y46*%
G04 Gerber Fmt 4.6, Leading zero omitted, Abs format (unit mm)*
G04 Created by KiCad (PCBNEW 8.0.7) date 2024-12-28 18:39:16*
%MOMM*%
%LPD*%
G01*
G04 APERTURE LIST*
G04 Aperture macros list*
%AMRoundRect*
0 Rectangle with rounded corners*
0 $1 Rounding radius*
0 $2 $3 $4 $5 $6 $7 $8 $9 X,Y pos of 4 corners*
0 Add a 4 corners polygon primitive as box body*
4,1,4,$2,$3,$4,$5,$6,$7,$8,$9,$2,$3,0*
0 Add four circle primitives for the rounded corners*
1,1,$1+$1,$2,$3*
1,1,$1+$1,$4,$5*
1,1,$1+$1,$6,$7*
1,1,$1+$1,$8,$9*
0 Add four rect primitives between the rounded corners*
20,1,$1+$1,$2,$3,$4,$5,0*
20,1,$1+$1,$4,$5,$6,$7,0*
20,1,$1+$1,$6,$7,$8,$9,0*
20,1,$1+$1,$8,$9,$2,$3,0*%
G04 Aperture macros list end*
%ADD10RoundRect,0.250000X0.550000X0.550000X-0.550000X0.550000X-0.550000X-0.550000X0.550000X-0.550000X0*%
%ADD11RoundRect,0.250000X-0.550000X-0.550000X0.550000X-0.550000X0.550000X0.550000X-0.550000X0.550000X0*%
%ADD12C,3.600000*%
%ADD13C,5.600000*%
%ADD14RoundRect,0.250000X0.262500X0.450000X-0.262500X0.450000X-0.262500X-0.450000X0.262500X-0.450000X0*%
%ADD15RoundRect,0.250000X0.475000X-0.250000X0.475000X0.250000X-0.475000X0.250000X-0.475000X-0.250000X0*%
%ADD16RoundRect,0.525400X-0.900400X-0.525400X0.900400X-0.525400X0.900400X0.525400X-0.900400X0.525400X0*%
%ADD17RoundRect,0.300400X1.000400X0.300400X-1.000400X0.300400X-1.000400X-0.300400X1.000400X-0.300400X0*%
%ADD18C,1.700000*%
%ADD19RoundRect,0.102000X-0.700000X0.300000X-0.700000X-0.300000X0.700000X-0.300000X0.700000X0.300000X0*%
%ADD20RoundRect,0.225000X-0.250000X0.225000X-0.250000X-0.225000X0.250000X-0.225000X0.250000X0.225000X0*%
%ADD21RoundRect,0.250000X-0.262500X-0.450000X0.262500X-0.450000X0.262500X0.450000X-0.262500X0.450000X0*%
G04 APERTURE END LIST*
D10*
%TO.C,G8*%
X137000000Y-60000000D03*
%TD*%
D11*
%TO.C,G9*%
X137000000Y-57250000D03*
%TD*%
D10*
%TO.C,P0*%
X141750000Y-50150000D03*
%TD*%
D12*
%TO.C,H3*%
X115857864Y-55857864D03*
D13*
X115857864Y-55857864D03*
%TD*%
D14*
%TO.C,R1*%
X138000000Y-69000000D03*
X136175000Y-69000000D03*
%TD*%
D15*
%TO.C,R3*%
X119000000Y-39900000D03*
X119000000Y-38000000D03*
%TD*%
D16*
%TO.C,U1*%
X122000000Y-37500000D03*
X122000000Y-40040000D03*
X122000000Y-42580000D03*
X122000000Y-45120000D03*
X122000000Y-47660000D03*
X122000000Y-50200000D03*
X122000000Y-52740000D03*
X138165000Y-52740000D03*
X138165000Y-50200000D03*
X138165000Y-47660000D03*
X138165000Y-45120000D03*
X138165000Y-42580000D03*
X138165000Y-40040000D03*
X138165000Y-37500000D03*
D17*
X125610000Y-44738000D03*
X125610000Y-42833000D03*
D18*
X128785000Y-36488000D03*
X131325000Y-36488000D03*
X128785000Y-39028000D03*
X131325000Y-39028000D03*
X128785000Y-41568000D03*
X131325000Y-41568000D03*
%TD*%
D12*
%TO.C,H2*%
X115857864Y-84142136D03*
D13*
X115857864Y-84142136D03*
%TD*%
D19*
%TO.C,U2*%
X127300000Y-68095000D03*
X127300000Y-69365000D03*
X127300000Y-70635000D03*
X127300000Y-71905000D03*
X132700000Y-71905000D03*
X132700000Y-70635000D03*
X132700000Y-69365000D03*
X132700000Y-68095000D03*
%TD*%
D11*
%TO.C,G2*%
X122000000Y-59000000D03*
%TD*%
D12*
%TO.C,H1*%
X144142136Y-84142136D03*
D13*
X144142136Y-84142136D03*
%TD*%
D11*
%TO.C,G3*%
X125000000Y-61750000D03*
%TD*%
D20*
%TO.C,C1*%
X124000000Y-69450000D03*
X124000000Y-71000000D03*
%TD*%
D10*
%TO.C,G7*%
X134000000Y-60000000D03*
%TD*%
D11*
%TO.C,P1.5*%
X144500000Y-50150000D03*
%TD*%
%TO.C,G10*%
X134000000Y-57250000D03*
%TD*%
%TO.C,P10*%
X122000000Y-61750000D03*
%TD*%
D12*
%TO.C,H4*%
X144142136Y-55857864D03*
D13*
X144142136Y-55857864D03*
%TD*%
D11*
%TO.C,G4*%
X125000000Y-59000000D03*
%TD*%
D21*
%TO.C,R2*%
X136175000Y-71000000D03*
X138000000Y-71000000D03*
%TD*%
D10*
%TO.C,P1*%
X141750000Y-46750000D03*
%TD*%
D11*
%TO.C,BAT_P1*%
X145000000Y-64000000D03*
%TD*%
%TO.C,BAT_N1*%
X148000000Y-64000000D03*
%TD*%
M02*
